<?xml version="1.0" encoding="UTF-8"?>
<svg width="184px" height="281px" viewBox="0 0 184 281" version="1.1" xmlns="http://www.w3.org/2000/svg" xmlns:xlink="http://www.w3.org/1999/xlink">
    <title>Group</title>
    <g id="Page-1" stroke="none" stroke-width="1" fill="none" fill-rule="evenodd">
        <g id="Group" transform="translate(0.000000, 0.954752)">
            <path d="M91.9505121,10.0000344 C118.389171,9.98629634 146.571145,12.7235115 154.06234,22.2353266 C166.51846,38.0512701 174,58.6032017 174,81.0452475 C174,105.999298 164.749119,128.621658 149.694514,144.98536 C134.9292,161.034614 114.555039,171.045248 92,171.045248 C69.4449609,171.045248 49.0707999,161.034614 34.3054862,144.98536 C19.2508805,128.621658 10,105.999298 10,81.0452475 C10,58.6340847 17.4609556,38.1078823 29.8862526,22.3006631 C37.3730119,12.7761547 65.5278982,10.0137641 91.9505121,10.0000344 Z" id="Oval" stroke="#FFFFFF" stroke-width="20"></path>
            <path d="M14,83.0452475 L169,83.0452475 L157.477637,144.545248 C126.676216,163.630304 101.256064,171.083682 81.2171812,166.905379 C61.1782983,162.727077 43.2791733,155.273699 27.519806,144.545248 L14,83.0452475 Z" id="Rectangle" fill="#FFFFFF"></path>
            <rect id="Rectangle" fill="#FFFFFF" x="84" y="173" width="17" height="105" rx="8"></rect>
            <rect id="Rectangle" fill="#FFFFFF" x="45" y="263" width="94" height="17" rx="8"></rect>
        </g>
    </g>
</svg>