<?xml version="1.0" encoding="UTF-8"?>
<svg width="66px" height="44px" viewBox="0 0 66 44" version="1.1" xmlns="http://www.w3.org/2000/svg" xmlns:xlink="http://www.w3.org/1999/xlink">
    <title>Shape</title>
    <g id="Page-1" stroke="none" stroke-width="1" fill="none" fill-rule="evenodd">
        <g id="logo-jaywing" transform="translate(-40.000000, 0.000000)" fill="#FFFFFF" fill-rule="nonzero">
            <path d="M101.21374,0 L90.6335878,37.7142857 C85.8473282,35.4514286 80.8091603,31.9314286 76.2748092,27.9085714 C79.5496183,24.3885714 84.5877863,17.8514286 84.5877863,12.32 C84.5877863,9.30285714 83.3282443,6.28571429 81.0610687,4.02285714 C78.7938931,1.76 76.0229008,0.502857143 72.7480916,0.502857143 C69.4732824,0.502857143 66.7022901,1.76 64.4351145,4.02285714 C62.6717557,6.03428571 61.4122137,9.05142857 61.4122137,12.0685714 C61.4122137,17.6 66.7022901,24.1371429 69.7251908,27.6571429 C65.1908397,31.9314286 60.1526718,35.4514286 55.3664122,37.7142857 L44.7862595,0 L40,0 L52.3435115,44 L54.8625954,42.9942857 C61.1603053,40.7314286 67.7099237,36.4571429 73.2519084,30.9257143 C78.7938931,36.2057143 85.3435115,40.48 91.6412214,42.9942857 L94.1603053,44 L106,0 L101.21374,0 Z M66,13 C66,9.25 69.1111111,6 73,6 C76.8888889,6 80,9 80,13 C80,15.25 77.9259259,19.75 73,25 C68.0740741,20 66,15.25 66,13 L66,13 Z" id="Shape"></path>
        </g>
    </g>
</svg>